# xmcd
#
# Track frame offsets:
#	150
#	14370
#	29407
#	61755
#	74852
#	85627
#	99307
#	111382
#	122432
#	145107
#
# Disc length: 2095 seconds
#
# Revision: 5
# Processed by: cddbd v1.5.2PL0 Copyright (c) Steve Scherf et al.
# Submitted via: audiograbber 1.83.01
#
DISCID=82082d0a
DTITLE=Various Artist - Greatest Blues Legends
DYEAR=1993
DGENRE=Blues
TTITLE0=Muddy Waters - Funky Butt
TTITLE1=Jimmy Reed - Heartaches and Troubles
TTITLE2=B. B. King - Ask Me No Questions
TTITLE3=Koko Taylor - Wang Dang Doodle
TTITLE4=Buddy Guy - Stone Crazy
TTITLE5=Little Milton - We're Gonna Make It
TTITLE6=Bobby Bland - Touch of the Blues
TTITLE7=Elmore James - Call It Stormy Monday
TTITLE8=T Bone Walker - Goin' To Funky Town
TTITLE9=Howlin' Wolf - How Many More Years
EXTD=Correction of Other Submission
EXTT0=
EXTT1=
EXTT2=
EXTT3=
EXTT4=
EXTT5=
EXTT6=
EXTT7=
EXTT8=
EXTT9=
PLAYORDER=
